<?xml version="1.0" encoding="utf-8"?>
<!-- Generator: Adobe Illustrator 19.1.0, SVG Export Plug-In . SVG Version: 6.00 Build 0)  -->
<svg version="1.1" id="Layer_1" xmlns="http://www.w3.org/2000/svg" xmlns:xlink="http://www.w3.org/1999/xlink" x="0px" y="0px"
	 viewBox="-371 283 48 48" style="enable-background:new -371 283 48 48;" xml:space="preserve">
<style type="text/css">
	.st0{fill:#2D9AD2;}
	.st1{fill:#FFFFFF;}
</style>
<g id="Layer_550">
	<g>
		<circle class="st0" cx="-347" cy="307" r="24"/>
		<g>
			<path class="st1" d="M-357.9,317h5.4c0,0,5.9-0.2,5.9-6.2c0,0,0.3-4.9-3.5-4.9c0,0,2.8-0.2,2.8-3.7c0-3.5-2.3-5.2-5.3-5.2h-5.4
				h-0.2h-3.9v20h3.9H-357.9z M-357.9,300.5h4.7h0.7c0,0,1.3,0,1.3,2c0,2-0.8,2.3-1.6,2.3h-5.1V300.5z M-357.9,307.9h5.4
				c0,0,2,0,2,2.7c0,2.3-1.5,2.5-2.2,2.5c-0.1,0-0.3,0-0.3,0h-4.8V307.9z"/>
			<path class="st1" d="M-338.6,302c-7.2,0-7.1,7.5-7.1,7.5s-0.5,7.5,7.1,7.5c0,0,6.4,0.4,6.4-5.2h-3.3c0,0,0.1,2.1-3,2.1
				c0,0-3.3,0.2-3.3-3.4h9.6C-332.2,310.5-331.1,302-338.6,302z M-341.8,307.9c0,0,0.4-3,3.3-3s2.8,3,2.8,3H-341.8z"/>
			<rect x="-342.6" y="298.2" class="st1" width="7.7" height="1.8"/>
		</g>
		<circle class="st0" cx="-347" cy="307" r="24"/>
		<g>
			<path class="st1" d="M-357.9,317h5.4c0,0,5.9-0.2,5.9-6.2c0,0,0.3-4.9-3.5-4.9c0,0,2.8-0.2,2.8-3.7c0-3.5-2.3-5.2-5.3-5.2h-5.4
				h-0.2h-3.9v20h3.9H-357.9z M-357.9,300.5h4.7h0.7c0,0,1.3,0,1.3,2c0,2-0.8,2.3-1.6,2.3h-5.1V300.5z M-357.9,307.9h5.4
				c0,0,2,0,2,2.7c0,2.3-1.5,2.5-2.2,2.5c-0.1,0-0.3,0-0.3,0h-4.8V307.9z"/>
			<path class="st1" d="M-338.6,302c-7.2,0-7.1,7.5-7.1,7.5s-0.5,7.5,7.1,7.5c0,0,6.4,0.4,6.4-5.2h-3.3c0,0,0.1,2.1-3,2.1
				c0,0-3.3,0.2-3.3-3.4h9.6C-332.2,310.5-331.1,302-338.6,302z M-341.8,307.9c0,0,0.4-3,3.3-3s2.8,3,2.8,3H-341.8z"/>
			<rect x="-342.6" y="298.2" class="st1" width="7.7" height="1.8"/>
		</g>
		<circle cx="-347" cy="307" r="24"/>
		<g>
			<path class="st1" d="M-357.9,317h5.4c0,0,5.9-0.2,5.9-6.2c0,0,0.3-4.9-3.5-4.9c0,0,2.8-0.2,2.8-3.7c0-3.5-2.3-5.2-5.3-5.2h-5.4
				h-0.2h-3.9v20h3.9H-357.9z M-357.9,300.5h4.7h0.7c0,0,1.3,0,1.3,2c0,2-0.8,2.3-1.6,2.3h-5.1V300.5z M-357.9,307.9h5.4
				c0,0,2,0,2,2.7c0,2.3-1.5,2.5-2.2,2.5c-0.1,0-0.3,0-0.3,0h-4.8V307.9z"/>
			<path class="st1" d="M-338.6,302c-7.2,0-7.1,7.5-7.1,7.5s-0.5,7.5,7.1,7.5c0,0,6.4,0.4,6.4-5.2h-3.3c0,0,0.1,2.1-3,2.1
				c0,0-3.3,0.2-3.3-3.4h9.6C-332.2,310.5-331.1,302-338.6,302z M-341.8,307.9c0,0,0.4-3,3.3-3s2.8,3,2.8,3H-341.8z"/>
			<rect x="-342.6" y="298.2" class="st1" width="7.7" height="1.8"/>
		</g>
	</g>
</g>
<g id="Layer_1_1_">
</g>
</svg>
