<?xml version="1.0" encoding="utf-8"?>
<!-- Generator: Adobe Illustrator 19.1.0, SVG Export Plug-In . SVG Version: 6.00 Build 0)  -->
<svg version="1.1" id="Layer_1" xmlns="http://www.w3.org/2000/svg" xmlns:xlink="http://www.w3.org/1999/xlink" x="0px" y="0px"
	 viewBox="-371 283 48 48" style="enable-background:new -371 283 48 48;" xml:space="preserve">
<style type="text/css">
	.st0{fill:#0173B2;}
	.st1{fill:#FFFFFF;}
</style>
<g id="Layer_563">
	<g>
		<circle class="st0" cx="-347" cy="307" r="24"/>
		<g>
			<rect x="-362" y="302" class="st1" width="7" height="20"/>
			<circle class="st1" cx="-358.5" cy="295.5" r="3.5"/>
			<path class="st1" d="M-332,311c0-5.4-1.2-9-7.5-9c-3,0-5.1,1.1-5.9,2.7h-0.1V302h-5.6v20h5.8v-9.9c0-2.6,0.5-5.1,3.7-5.1
				c3.2,0,3.4,3,3.4,5.3v9.7h6L-332,311L-332,311z"/>
		</g>
		<circle class="st0" cx="-347" cy="307" r="24"/>
		<g>
			<rect x="-362" y="302" class="st1" width="7" height="20"/>
			<circle class="st1" cx="-358.5" cy="295.5" r="3.5"/>
			<path class="st1" d="M-332,311c0-5.4-1.2-9-7.5-9c-3,0-5.1,1.1-5.9,2.7h-0.1V302h-5.6v20h5.8v-9.9c0-2.6,0.5-5.1,3.7-5.1
				c3.2,0,3.4,3,3.4,5.3v9.7h6L-332,311L-332,311z"/>
		</g>
		<circle cx="-347" cy="307" r="24"/>
		<g>
			<rect x="-362" y="302" class="st1" width="7" height="20"/>
			<circle class="st1" cx="-358.5" cy="295.5" r="3.5"/>
			<path class="st1" d="M-332,311c0-5.4-1.2-9-7.5-9c-3,0-5.1,1.1-5.9,2.7h-0.1V302h-5.6v20h5.8v-9.9c0-2.6,0.5-5.1,3.7-5.1
				c3.2,0,3.4,3,3.4,5.3v9.7h6L-332,311L-332,311z"/>
		</g>
	</g>
</g>
<g id="Layer_1_1_">
</g>
</svg>
