<?xml version="1.0" encoding="utf-8"?>
<!-- Generator: Adobe Illustrator 19.1.0, SVG Export Plug-In . SVG Version: 6.00 Build 0)  -->
<svg version="1.1" id="Layer_1" xmlns="http://www.w3.org/2000/svg" xmlns:xlink="http://www.w3.org/1999/xlink" x="0px" y="0px"
	 viewBox="-371 283 48 48" style="enable-background:new -371 283 48 48;" xml:space="preserve">
<style type="text/css">
	.st0{fill:#FFFFFF;}
</style>
<g>
	<circle cx="-347" cy="307" r="24"/>
	<path class="st0" d="M-355.6,321.9c-1.2,0-2.4-0.5-3.3-1.4l-3.1-3.1c-0.9-0.9-1.4-2.1-1.4-3.3s0.5-2.4,1.4-3.3l9.3-9.3
		c1.8-1.8,4.8-1.8,6.6,0l1.6,1.6c0.6,0.6,0.6,1.6,0,2.2c-0.6,0.6-1.6,0.6-2.2,0l-1.6-1.6c-0.6-0.6-1.6-0.6-2.2,0l-9.3,9.3
		c-0.3,0.3-0.5,0.7-0.5,1.1c0,0.4,0.2,0.8,0.5,1.1l3.1,3.1c0.6,0.6,1.6,0.6,2.2,0l3.7-3.7c0.6-0.6,1.6-0.6,2.2,0
		c0.6,0.6,0.6,1.6,0,2.2l-3.7,3.7C-353.2,321.4-354.4,321.9-355.6,321.9z M-342.8,311l9.3-9.3c1.8-1.8,1.8-4.8,0-6.6l-3.1-3.1
		c-1.8-1.8-4.8-1.8-6.6,0l-3.7,3.7c-0.6,0.6-0.6,1.6,0,2.2c0.6,0.6,1.6,0.6,2.2,0l3.7-3.7c0.6-0.6,1.6-0.6,2.2,0l3.1,3.1
		c0.6,0.6,0.6,1.6,0,2.2l-9.3,9.3c-0.6,0.6-1.6,0.6-2.2,0l-1.6-1.6c-0.6-0.6-1.6-0.6-2.2,0c-0.6,0.6-0.6,1.6,0,2.2l1.6,1.6
		c0.9,0.9,2.1,1.4,3.3,1.4S-343.7,311.9-342.8,311z"/>
</g>
</svg>
