<svg version="1.2" baseProfile="tiny" id="Layer_1" xmlns="http://www.w3.org/2000/svg" xmlns:xlink="http://www.w3.org/1999/xlink"
	 x="0px" y="0px" viewBox="90 91 792 612" xml:space="preserve">
	<path fill="#00AEEF" d="M90,467.6C90,288.1,216.7,150.8,435,91l42.2,91.5c-144.3,59.8-225.3,130.2-242.9,228.8l14.1,7
		c14.1-21.1,38.7-38.7,77.4-38.7c70.4,0,116.2,52.8,116.2,133.8c0,91.5-63.4,172.5-161.9,172.5C163.9,689.4,90,604.9,90,467.6z
		 M494.8,467.6c0-179.5,126.7-316.8,345-376.6l42.2,91.5c-144.3,59.8-225.3,130.2-242.9,228.8l14.1,7c14.1-21.1,38.7-38.7,77.4-38.7
		c70.4,0,116.2,52.8,116.2,133.8c0,91.5-63.4,172.5-161.9,172.5C568.7,689.4,494.8,604.9,494.8,467.6z"/>
</svg>
