<?xml version="1.0" encoding="utf-8"?>
<!-- Generator: Adobe Illustrator 19.1.0, SVG Export Plug-In . SVG Version: 6.00 Build 0)  -->
<svg version="1.1" id="Layer_1" xmlns="http://www.w3.org/2000/svg" xmlns:xlink="http://www.w3.org/1999/xlink" x="0px" y="0px"
	 viewBox="-371 283 48 48" style="enable-background:new -371 283 48 48;" xml:space="preserve">
<style type="text/css">
	.st0{fill:#FDFDFD;}
</style>
<g>
	<g>
		<circle cx="-347" cy="307" r="24"/>
	</g>
</g>
<g>
	<path class="st0" d="M-334.8,294.1c-1.2-0.8-2.5-1.3-3.8-1.6c-2.7-0.7-5.5-0.9-8-1c-1.3,0-2.4,0.1-3.4,0.1
		c-2.4,0.2-4.7,0.6-6.9,1.4c-1,0.4-2,0.9-2.8,1.7c-0.4,0.4-0.5,0.9-0.4,1.5c0.2,1.1,0.3,2.1,0.5,3.2c0.5,3,1.1,6.1,1.5,9.1
		c0.2,1.4,0.8,2.3,2,3c0.7,0.4,1.4,0.8,2.2,1c4.4,1.4,8.8,1.5,13.3,0.3c1.4-0.4,2.7-0.9,3.9-1.8c0.6-0.4,1-0.9,1.2-1.7
		c0.2-1.4,0.5-2.8,0.7-4.2c0.5-2.8,0.9-5.6,1.4-8.4C-333.5,295.7-333.9,294.8-334.8,294.1z M-347,310.7c-2.3,0-4.2-1.9-4.2-4.2
		c0-2.3,1.9-4.2,4.2-4.3c2.3,0,4.3,1.9,4.3,4.3C-342.7,308.8-344.7,310.7-347,310.7z M-338.9,296.1c-0.8,0.5-1.6,0.6-2.5,0.8
		c-2.3,0.4-4.7,0.5-7.1,0.4c-1.9-0.1-3.9-0.2-5.7-0.8c-0.4-0.1-0.7-0.3-1-0.5c-0.4-0.3-0.4-0.7,0-0.9c0.5-0.4,1.1-0.6,1.8-0.7
		c2.1-0.5,4.2-0.6,6-0.6c2.5,0,4.7,0.1,6.8,0.6c0.6,0.1,1.2,0.3,1.7,0.6C-338.3,295.4-338.3,295.8-338.9,296.1z"/>
	<path class="st0" d="M-337.7,313.4c-0.1,0.1-0.2,0.1-0.3,0.2c-1.6,1-3.3,1.7-5.1,2.1c-2.2,0.5-4.4,0.5-6.7,0.2
		c-2.3-0.3-4.4-1-6.3-2.3c-0.2-0.2-0.5-0.3-0.8-0.1c-0.3,0.2-0.2,0.5-0.2,0.8c0.2,1.3,0.5,2.6,0.7,3.9c0.2,1.2,0.7,2.2,1.8,2.8
		c0.4,0.2,0.7,0.4,1.1,0.5c2.1,0.9,4.2,1.1,6.4,1.1c1.4,0,2.8-0.1,4.2-0.4c1.3-0.3,2.6-0.7,3.7-1.5c0.7-0.5,1.2-1.1,1.3-1.9
		c0.2-1,0.4-2.1,0.6-3.1c0.1-0.6,0.2-1.1,0.3-1.7C-336.9,313.4-337.3,313.2-337.7,313.4z"/>
	<path class="st0" d="M-347,304.3c-1.2,0-2.1,0.9-2.2,2.1c0,1.2,0.9,2.1,2.1,2.1c1.2,0,2.1-1,2.1-2.1
		C-344.9,305.3-345.8,304.3-347,304.3z"/>
</g>
</svg>
