<?xml version="1.0" encoding="utf-8"?>
<!-- Generator: Adobe Illustrator 19.1.0, SVG Export Plug-In . SVG Version: 6.00 Build 0)  -->
<svg version="1.1" id="Layer_1" xmlns="http://www.w3.org/2000/svg" xmlns:xlink="http://www.w3.org/1999/xlink" x="0px" y="0px"
	 viewBox="-371 283 48 48" style="enable-background:new -371 283 48 48;" xml:space="preserve">
<style type="text/css">
	.st0{fill:#F872A3;}
	.st1{fill:#FFFFFF;}
</style>
<g id="Layer_576">
	<g>
		<circle class="st0" cx="-347" cy="307" r="24"/>
		<g>
			<path class="st1" d="M-333.2,301.2c-0.4-0.9-0.8-1.7-1.4-2.5c-0.5-0.8-1.2-1.5-1.8-2.2c-0.7-0.7-1.4-1.3-2.2-1.8
				c-0.8-0.5-1.7-1-2.5-1.4c-0.9-0.4-1.9-0.7-2.8-0.9c-1-0.2-2-0.3-3-0.3c-1,0-2,0.1-3,0.3c-1,0.2-1.9,0.5-2.8,0.9
				c-0.9,0.4-1.7,0.8-2.5,1.4c-0.8,0.5-1.5,1.2-2.2,1.8c-0.7,0.7-1.3,1.4-1.8,2.2c-0.5,0.8-1,1.7-1.4,2.5c-0.4,0.9-0.7,1.9-0.9,2.8
				c-0.2,1-0.3,2-0.3,3c0,1,0.1,2,0.3,3c0.2,1,0.5,1.9,0.9,2.8c0.4,0.9,0.8,1.7,1.4,2.5c0.5,0.8,1.2,1.5,1.8,2.2
				c0.7,0.7,1.4,1.3,2.2,1.8c0.8,0.5,1.7,1,2.5,1.4c0.9,0.4,1.9,0.7,2.8,0.9c1,0.2,2,0.3,3,0.3c1,0,2-0.1,3-0.3
				c1-0.2,1.9-0.5,2.8-0.9c0.9-0.4,1.7-0.8,2.5-1.4c0.8-0.5,1.5-1.2,2.2-1.8c0.7-0.7,1.3-1.4,1.8-2.2c0.5-0.8,1-1.7,1.4-2.5
				c0.4-0.9,0.7-1.9,0.9-2.8c0.2-1,0.3-2,0.3-3c0-1-0.1-2-0.3-3C-332.5,303-332.8,302.1-333.2,301.2z M-347,294.2
				c3.2,0,6.2,1.2,8.5,3.2c0,0.1-1.9,2.8-6.7,4.6c-2.2-4-4.6-7.2-4.8-7.5C-349,294.3-348,294.2-347,294.2z M-350.1,294.6
				C-350.1,294.6-350.1,294.6-350.1,294.6C-350.1,294.6-350.1,294.6-350.1,294.6C-350.1,294.6-350.1,294.6-350.1,294.6z
				 M-352.5,295.4c0.2,0.2,2.5,3.4,4.8,7.4c-6.1,1.6-11.5,1.6-11.8,1.6C-358.7,300.4-356,297.1-352.5,295.4z M-356.5,315.6
				c-2-2.3-3.3-5.3-3.3-8.6c0-0.1,0-0.3,0-0.4c0.2,0,6.6,0.1,13.1-1.8c0.4,0.7,0.7,1.4,1,2.2c-0.2,0-0.3,0.1-0.5,0.2
				C-353,309.3-356.5,315.6-356.5,315.6C-356.5,315.6-356.5,315.6-356.5,315.6z M-347,319.8c-3,0-5.7-1-7.9-2.7l0,0
				c0,0-0.1-0.1-0.3-0.2c0.1,0.1,0.2,0.1,0.3,0.2c0,0,2.5-5.4,10.1-8c0,0,0.1,0,0.1,0c1.8,4.7,2.5,8.6,2.7,9.7
				C-343.5,319.4-345.2,319.8-347,319.8z M-339.8,317.6c-0.1-0.8-0.8-4.5-2.5-9.1c4.1-0.7,7.7,0.5,8,0.6
				C-334.9,312.6-337,315.7-339.8,317.6z M-343.1,306.5c-0.1-0.2-0.2-0.4-0.3-0.7c-0.3-0.6-0.6-1.2-0.9-1.9c5.1-2.1,7.1-5,7.1-5.1
				c1.8,2.2,2.9,5,2.9,8C-334.4,306.8-338.7,305.9-343.1,306.5z"/>
		</g>
		<circle class="st0" cx="-347" cy="307" r="24"/>
		<g>
			<path class="st1" d="M-333.2,301.2c-0.4-0.9-0.8-1.7-1.4-2.5c-0.5-0.8-1.2-1.5-1.8-2.2c-0.7-0.7-1.4-1.3-2.2-1.8
				c-0.8-0.5-1.7-1-2.5-1.4c-0.9-0.4-1.9-0.7-2.8-0.9c-1-0.2-2-0.3-3-0.3c-1,0-2,0.1-3,0.3c-1,0.2-1.9,0.5-2.8,0.9
				c-0.9,0.4-1.7,0.8-2.5,1.4c-0.8,0.5-1.5,1.2-2.2,1.8c-0.7,0.7-1.3,1.4-1.8,2.2c-0.5,0.8-1,1.7-1.4,2.5c-0.4,0.9-0.7,1.9-0.9,2.8
				c-0.2,1-0.3,2-0.3,3c0,1,0.1,2,0.3,3c0.2,1,0.5,1.9,0.9,2.8c0.4,0.9,0.8,1.7,1.4,2.5c0.5,0.8,1.2,1.5,1.8,2.2
				c0.7,0.7,1.4,1.3,2.2,1.8c0.8,0.5,1.7,1,2.5,1.4c0.9,0.4,1.9,0.7,2.8,0.9c1,0.2,2,0.3,3,0.3c1,0,2-0.1,3-0.3
				c1-0.2,1.9-0.5,2.8-0.9c0.9-0.4,1.7-0.8,2.5-1.4c0.8-0.5,1.5-1.2,2.2-1.8c0.7-0.7,1.3-1.4,1.8-2.2c0.5-0.8,1-1.7,1.4-2.5
				c0.4-0.9,0.7-1.9,0.9-2.8c0.2-1,0.3-2,0.3-3c0-1-0.1-2-0.3-3C-332.5,303-332.8,302.1-333.2,301.2z M-347,294.2
				c3.2,0,6.2,1.2,8.5,3.2c0,0.1-1.9,2.8-6.7,4.6c-2.2-4-4.6-7.2-4.8-7.5C-349,294.3-348,294.2-347,294.2z M-350.1,294.6
				C-350.1,294.6-350.1,294.6-350.1,294.6C-350.1,294.6-350.1,294.6-350.1,294.6C-350.1,294.6-350.1,294.6-350.1,294.6z
				 M-352.5,295.4c0.2,0.2,2.5,3.4,4.8,7.4c-6.1,1.6-11.5,1.6-11.8,1.6C-358.7,300.4-356,297.1-352.5,295.4z M-356.5,315.6
				c-2-2.3-3.3-5.3-3.3-8.6c0-0.1,0-0.3,0-0.4c0.2,0,6.6,0.1,13.1-1.8c0.4,0.7,0.7,1.4,1,2.2c-0.2,0-0.3,0.1-0.5,0.2
				C-353,309.3-356.5,315.6-356.5,315.6C-356.5,315.6-356.5,315.6-356.5,315.6z M-347,319.8c-3,0-5.7-1-7.9-2.7l0,0
				c0,0-0.1-0.1-0.3-0.2c0.1,0.1,0.2,0.1,0.3,0.2c0,0,2.5-5.4,10.1-8c0,0,0.1,0,0.1,0c1.8,4.7,2.5,8.6,2.7,9.7
				C-343.5,319.4-345.2,319.8-347,319.8z M-339.8,317.6c-0.1-0.8-0.8-4.5-2.5-9.1c4.1-0.7,7.7,0.5,8,0.6
				C-334.9,312.6-337,315.7-339.8,317.6z M-343.1,306.5c-0.1-0.2-0.2-0.4-0.3-0.7c-0.3-0.6-0.6-1.2-0.9-1.9c5.1-2.1,7.1-5,7.1-5.1
				c1.8,2.2,2.9,5,2.9,8C-334.4,306.8-338.7,305.9-343.1,306.5z"/>
		</g>
		<circle cx="-347" cy="307" r="24"/>
		<g>
			<path class="st1" d="M-333.2,301.2c-0.4-0.9-0.8-1.7-1.4-2.5c-0.5-0.8-1.2-1.5-1.8-2.2c-0.7-0.7-1.4-1.3-2.2-1.8
				c-0.8-0.5-1.7-1-2.5-1.4c-0.9-0.4-1.9-0.7-2.8-0.9c-1-0.2-2-0.3-3-0.3c-1,0-2,0.1-3,0.3c-1,0.2-1.9,0.5-2.8,0.9
				c-0.9,0.4-1.7,0.8-2.5,1.4c-0.8,0.5-1.5,1.2-2.2,1.8c-0.7,0.7-1.3,1.4-1.8,2.2c-0.5,0.8-1,1.7-1.4,2.5c-0.4,0.9-0.7,1.9-0.9,2.8
				c-0.2,1-0.3,2-0.3,3c0,1,0.1,2,0.3,3c0.2,1,0.5,1.9,0.9,2.8c0.4,0.9,0.8,1.7,1.4,2.5c0.5,0.8,1.2,1.5,1.8,2.2
				c0.7,0.7,1.4,1.3,2.2,1.8c0.8,0.5,1.7,1,2.5,1.4c0.9,0.4,1.9,0.7,2.8,0.9c1,0.2,2,0.3,3,0.3c1,0,2-0.1,3-0.3
				c1-0.2,1.9-0.5,2.8-0.9c0.9-0.4,1.7-0.8,2.5-1.4c0.8-0.5,1.5-1.2,2.2-1.8c0.7-0.7,1.3-1.4,1.8-2.2c0.5-0.8,1-1.7,1.4-2.5
				c0.4-0.9,0.7-1.9,0.9-2.8c0.2-1,0.3-2,0.3-3c0-1-0.1-2-0.3-3C-332.5,303-332.8,302.1-333.2,301.2z M-347,294.2
				c3.2,0,6.2,1.2,8.5,3.2c0,0.1-1.9,2.8-6.7,4.6c-2.2-4-4.6-7.2-4.8-7.5C-349,294.3-348,294.2-347,294.2z M-350.1,294.6
				C-350.1,294.6-350.1,294.6-350.1,294.6C-350.1,294.6-350.1,294.6-350.1,294.6C-350.1,294.6-350.1,294.6-350.1,294.6z
				 M-352.5,295.4c0.2,0.2,2.5,3.4,4.8,7.4c-6.1,1.6-11.5,1.6-11.8,1.6C-358.7,300.4-356,297.1-352.5,295.4z M-356.5,315.6
				c-2-2.3-3.3-5.3-3.3-8.6c0-0.1,0-0.3,0-0.4c0.2,0,6.6,0.1,13.1-1.8c0.4,0.7,0.7,1.4,1,2.2c-0.2,0-0.3,0.1-0.5,0.2
				C-353,309.3-356.5,315.6-356.5,315.6C-356.5,315.6-356.5,315.6-356.5,315.6z M-347,319.8c-3,0-5.7-1-7.9-2.7l0,0
				c0,0-0.1-0.1-0.3-0.2c0.1,0.1,0.2,0.1,0.3,0.2c0,0,2.5-5.4,10.1-8c0,0,0.1,0,0.1,0c1.8,4.7,2.5,8.6,2.7,9.7
				C-343.5,319.4-345.2,319.8-347,319.8z M-339.8,317.6c-0.1-0.8-0.8-4.5-2.5-9.1c4.1-0.7,7.7,0.5,8,0.6
				C-334.9,312.6-337,315.7-339.8,317.6z M-343.1,306.5c-0.1-0.2-0.2-0.4-0.3-0.7c-0.3-0.6-0.6-1.2-0.9-1.9c5.1-2.1,7.1-5,7.1-5.1
				c1.8,2.2,2.9,5,2.9,8C-334.4,306.8-338.7,305.9-343.1,306.5z"/>
		</g>
	</g>
</g>
<g id="Layer_1_1_">
</g>
</svg>
