<?xml version="1.0" encoding="utf-8"?>
<!-- Generator: Adobe Illustrator 19.1.0, SVG Export Plug-In . SVG Version: 6.00 Build 0)  -->
<svg version="1.1" id="Layer_1" xmlns="http://www.w3.org/2000/svg" xmlns:xlink="http://www.w3.org/1999/xlink" x="0px" y="0px"
	 viewBox="-371 283 48 48" style="enable-background:new -371 283 48 48;" xml:space="preserve">
<style type="text/css">
	.st0{fill:#00B3E8;}
	.st1{fill:#FFFFFF;}
</style>
<g id="Layer_571">
	<g>
		<path class="st0" d="M-323,307c0,13.3-10.7,24-24,24c-13.3,0-24-10.7-24-24c0-13.3,10.7-24,24-24C-333.7,283-323,293.7-323,307z"
			/>
		<g>
			<path class="st1" d="M-351,322h6c0,0,0-8.3,0-15h4.5l0.5-6h-4.8v-2.4c0-1.2,0.8-1.4,1.3-1.4c0.5,0,3.4,0,3.4,0V292l-4.6,0
				c-5.1,0-6.3,3.8-6.3,6.3v2.7h-3v6h3C-351,313.8-351,322-351,322z"/>
		</g>
	</g>
</g>
</svg>
