<svg version="1.1" id="Layer_1" xmlns="http://www.w3.org/2000/svg" xmlns:xlink="http://www.w3.org/1999/xlink" x="0px" y="0px"
	 viewBox="90 253 242 274" style="enable-background:new 90 253 242 274;" xml:space="preserve">
<style type="text/css">
	.st0{fill:#00B3E8;}
</style>
<path class="st0" d="M314.7,269.5c0.1,0.2-24,4.8-54.3,18.3c-30.1,13.2-66.3,35.3-88.5,64.2c-36.7,47.7-39.1,85.1-28,100
	c24-44.2,55.4-84.6,93.2-120.2C200,369.5,170,411.9,148,457.9c-6.4,15.8-11.9,31.8-16.4,48.2c-0.6,1.7-0.7,3.2,1.4,3.8
	c2,0.6,2.8-0.7,3.3-2.3c6.2-16.2,13.4-32,21.6-47.3c21.2,3.3,45.9-19.7,83.2-68.7C280,339.2,313.5,269.9,314.7,269.5z"/>
</svg>
