<svg version="1.1" id="Layer_1" xmlns="http://www.w3.org/2000/svg" xmlns:xlink="http://www.w3.org/1999/xlink" x="0px" y="0px"
	 viewBox="-371 283 48 48" style="enable-background:new -371 283 48 48;" xml:space="preserve">
<style type="text/css">
	.st0{fill:#00B3E8;}
	.st1{fill:#FFFFFF;}
</style>
<g id="Layer_552">
	<g>
		<circle class="st0" cx="-347" cy="307" r="24"/>
		<g>
			<path class="st1" d="M-339.1,312.2h1.3c0.3,0,0.6-0.3,0.6-0.6V307h4.5c0.3,0,0.6-0.3,0.6-0.6v-1.3c0-0.3-0.3-0.6-0.6-0.6h-4.5
				v-4.5c0-0.3-0.3-0.6-0.6-0.6h-1.3c-0.3,0-0.6,0.3-0.6,0.6v4.5h-4.5c-0.3,0-0.6,0.3-0.6,0.6v1.3c0,0.3,0.3,0.6,0.6,0.6h4.5v4.5
				C-339.7,311.9-339.4,312.2-339.1,312.2z"/>
			<path class="st1" d="M-356.9,320.1c1.1,0.3,2.4,0.4,3.7,0.4c1.1,0,2.2-0.2,3.3-0.4c3.2-0.9,5.2-3.2,5.2-5.9c0-2.6-0.8-4.1-3-5.7
				c-1-0.7-1.8-1.7-1.8-2c0-0.6,0-0.8,1.3-1.8c1.6-1.3,2.5-2.9,2.5-4.7c0-1.6-0.5-3-1.3-4h0.6c0.1,0,0.3,0,0.4-0.1l1.8-1.3
				c0.2-0.2,0.3-0.4,0.2-0.7c-0.1-0.3-0.3-0.4-0.6-0.4h-8c-0.9,0-1.8,0.2-2.6,0.5c-2.9,1-4.9,3.5-4.9,6c0,3.6,2.8,6.3,6.5,6.4
				c-0.1,0.3-0.1,0.6-0.1,0.8c0,0.6,0.1,1.1,0.4,1.6c0,0-0.1,0-0.1,0c-3.5,0-6.8,1.7-8,4.3c-0.3,0.7-0.5,1.4-0.5,2
				c0,0.7,0.2,1.3,0.5,1.9C-360.7,318.4-359.1,319.5-356.9,320.1z M-356.2,299.9c-0.2-1.3,0.1-2.5,0.8-3.3c0.4-0.5,1-0.7,1.6-0.7
				l0.1,0c1.8,0.1,3.4,2,3.8,4.4c0.2,1.3-0.1,2.6-0.8,3.3c-0.4,0.5-1,0.7-1.6,0.7c0,0,0,0,0,0h0
				C-354.1,304.3-355.9,302.2-356.2,299.9z M-352.8,310.8L-352.8,310.8c0.7,0,1.2,0.1,1.8,0.3c0.2,0.1,0.4,0.2,0.5,0.4
				c1.3,0.9,2.1,1.4,2.3,2.3c0.1,0.2,0.1,0.5,0.1,0.7c0,2.3-1.7,3.5-5.2,3.5c-2.6,0-4.6-1.6-4.6-3.6
				C-357.9,312.5-355.5,310.8-352.8,310.8z"/>
		</g>
	</g>
</g>
</svg>
