<svg version="1.1" id="Layer_1" xmlns="http://www.w3.org/2000/svg" xmlns:xlink="http://www.w3.org/1999/xlink" x="0px" y="0px"
	 viewBox="-371 283 48 48" style="enable-background:new -371 283 48 48;" xml:space="preserve">
<style type="text/css">
	.st0{fill:#00B3E8;}
	.st1{fill:#FFFFFF;}
</style>
<g id="Layer_543">
	<g>
		<circle class="st0" cx="-347" cy="307" r="24"/>
		<g>
			<path class="st1" d="M-337.8,292h-18.4c-3.2,0-5.8,2.6-5.8,5.8v6.1v12.3c0,3.2,2.6,5.8,5.8,5.8h18.4c3.2,0,5.8-2.6,5.8-5.8v-12.3
				v-6.1C-332,294.6-334.6,292-337.8,292z M-336.1,295.5l0.7,0v0.7v4.4l-5.1,0l0-5.1L-336.1,295.5z M-351.3,303.9
				c1-1.3,2.5-2.2,4.3-2.2s3.3,0.9,4.3,2.2c0.6,0.9,1,1.9,1,3.1c0,2.9-2.4,5.3-5.3,5.3c-2.9,0-5.3-2.4-5.3-5.3
				C-352.3,305.9-351.9,304.8-351.3,303.9z M-334.9,316.2c0,1.6-1.3,2.9-2.9,2.9h-18.4c-1.6,0-2.9-1.3-2.9-2.9v-12.3h4.5
				c-0.4,1-0.6,2-0.6,3.1c0,4.5,3.7,8.2,8.2,8.2s8.2-3.7,8.2-8.2c0-1.1-0.2-2.1-0.6-3.1h4.5V316.2z"/>
		</g>
	</g>
</g>
</svg>
