<?xml version="1.0" encoding="utf-8"?>
<!-- Generator: Adobe Illustrator 19.1.0, SVG Export Plug-In . SVG Version: 6.00 Build 0)  -->
<svg version="1.1" id="Layer_1" xmlns="http://www.w3.org/2000/svg" xmlns:xlink="http://www.w3.org/1999/xlink" x="0px" y="0px"
	 viewBox="-371 283 48 48" style="enable-background:new -371 283 48 48;" xml:space="preserve">
<style type="text/css">
	.st0{fill:#CB2027;}
	.st1{fill:#FFFFFF;}
</style>
<g id="Layer_553">
	<g>
		<circle class="st0" cx="-347" cy="307" r="24"/>
		<g>
			<path class="st1" d="M-353.8,321.8c0,0.2,0.3,0.3,0.4,0.1c0.2-0.2,2.4-2.9,3.2-5.6c0.2-0.8,1.3-4.7,1.3-4.7
				c0.6,1.1,2.4,2.1,4.4,2.1c5.7,0,9.6-5,9.6-11.8c0-5.1-4.5-9.9-11.3-9.9c-8.5,0-12.7,5.9-12.7,10.8c0,3,1.2,5.6,3.6,6.6
				c0.4,0.2,0.8,0,0.9-0.4c0.1-0.3,0.3-1.1,0.4-1.4c0.1-0.4,0.1-0.6-0.3-1c-0.7-0.8-1.2-1.9-1.2-3.4c0-4.4,3.4-8.3,8.8-8.3
				c4.8,0,7.4,2.8,7.4,6.6c0,5-2.3,9.2-5.6,9.2c-1.9,0-3.3-1.5-2.8-3.3c0.5-2.2,1.6-4.5,1.6-6.1c0-1.4-0.8-2.6-2.4-2.6
				c-1.9,0-3.4,1.9-3.4,4.5c0,1.6,0.6,2.7,0.6,2.7s-1.9,8-2.3,9.4C-354.5,318-353.9,321.5-353.8,321.8z"/>
		</g>
		<circle class="st0" cx="-347" cy="307" r="24"/>
		<g>
			<path class="st1" d="M-353.8,321.8c0,0.2,0.3,0.3,0.4,0.1c0.2-0.2,2.4-2.9,3.2-5.6c0.2-0.8,1.3-4.7,1.3-4.7
				c0.6,1.1,2.4,2.1,4.4,2.1c5.7,0,9.6-5,9.6-11.8c0-5.1-4.5-9.9-11.3-9.9c-8.5,0-12.7,5.9-12.7,10.8c0,3,1.2,5.6,3.6,6.6
				c0.4,0.2,0.8,0,0.9-0.4c0.1-0.3,0.3-1.1,0.4-1.4c0.1-0.4,0.1-0.6-0.3-1c-0.7-0.8-1.2-1.9-1.2-3.4c0-4.4,3.4-8.3,8.8-8.3
				c4.8,0,7.4,2.8,7.4,6.6c0,5-2.3,9.2-5.6,9.2c-1.9,0-3.3-1.5-2.8-3.3c0.5-2.2,1.6-4.5,1.6-6.1c0-1.4-0.8-2.6-2.4-2.6
				c-1.9,0-3.4,1.9-3.4,4.5c0,1.6,0.6,2.7,0.6,2.7s-1.9,8-2.3,9.4C-354.5,318-353.9,321.5-353.8,321.8z"/>
		</g>
		<circle cx="-347" cy="307" r="24"/>
		<g>
			<path class="st1" d="M-353.8,321.8c0,0.2,0.3,0.3,0.4,0.1c0.2-0.2,2.4-2.9,3.2-5.6c0.2-0.8,1.3-4.7,1.3-4.7
				c0.6,1.1,2.4,2.1,4.4,2.1c5.7,0,9.6-5,9.6-11.8c0-5.1-4.5-9.9-11.3-9.9c-8.5,0-12.7,5.9-12.7,10.8c0,3,1.2,5.6,3.6,6.6
				c0.4,0.2,0.8,0,0.9-0.4c0.1-0.3,0.3-1.1,0.4-1.4c0.1-0.4,0.1-0.6-0.3-1c-0.7-0.8-1.2-1.9-1.2-3.4c0-4.4,3.4-8.3,8.8-8.3
				c4.8,0,7.4,2.8,7.4,6.6c0,5-2.3,9.2-5.6,9.2c-1.9,0-3.3-1.5-2.8-3.3c0.5-2.2,1.6-4.5,1.6-6.1c0-1.4-0.8-2.6-2.4-2.6
				c-1.9,0-3.4,1.9-3.4,4.5c0,1.6,0.6,2.7,0.6,2.7s-1.9,8-2.3,9.4C-354.5,318-353.9,321.5-353.8,321.8z"/>
		</g>
	</g>
</g>
<g id="Layer_1_1_">
</g>
</svg>
